<svg width="16" height="10" viewBox="0 0 16 10" fill="none" xmlns="http://www.w3.org/2000/svg">
<path d="M15.2213 4.63004C15.104 4.45471 12.3073 0.333374 8 0.333374C3.67067 0.333374 0.893338 4.45671 0.777338 4.63204C0.629338 4.85537 0.629338 5.14604 0.778671 5.36937C0.896004 5.54537 3.69267 9.66671 8 9.66671C12.2853 9.66671 15.102 5.54737 15.22 5.37204C15.3707 5.14804 15.3713 4.85471 15.2213 4.63004ZM8 8.33337C5.1 8.33337 2.91 5.93604 2.16467 4.99871C2.60334 4.44404 3.548 3.38204 4.84734 2.60537C4.73334 2.93871 4.66667 3.29404 4.66667 3.66671C4.66667 5.50471 6.162 7.00004 8 7.00004C9.838 7.00004 11.3333 5.50471 11.3333 3.66671C11.3333 3.29671 11.2673 2.94337 11.1547 2.61204C12.448 3.38804 13.3927 4.44537 13.8333 4.99937C13.082 5.93804 10.8827 8.33337 8 8.33337Z" fill="#EEEEEE"/>
</svg>
