<svg width="98" height="77" viewBox="0 0 98 77" fill="none" xmlns="http://www.w3.org/2000/svg">
<path d="M87.3575 32.3232L98 38.561L97.8255 45.0487L91.5323 46.8863L91.3204 49.5864L97.327 53.2866L96.8285 64.062L84.9649 70.8248L76.3911 64.587L74.5468 38.561L87.3575 32.3232Z" fill="#161616"/>
<path d="M20.8736 38.1733L20.3502 72.5873H77.3632L76.8523 39.3359L20.8736 38.1733Z" fill="white"/>
<path d="M81.2263 38.1109H76.8273L77.3632 72.5874H55.2559H41.2113H20.3502L20.8861 36.8484H16.487L15.9512 72.5874V77H20.3502H41.2113H55.2559H77.3632H81.7622V72.5874L81.2263 38.1109Z" fill="#3A3939"/>
<path d="M78.1483 41.3359H19.7645L20.4998 17.3975H77.4006L78.1483 41.3359Z" fill="white"/>
<path d="M50.5328 13.6349L48.9751 15.185C48.5389 15.6225 47.841 15.6225 47.4173 15.185L36.0397 3.77203C35.1798 2.90949 35.1798 1.50944 36.0397 0.646901C36.8995 -0.215634 38.2953 -0.215634 39.1551 0.646901L50.5328 12.0599C50.9565 12.4974 50.9565 13.1974 50.5328 13.6349Z" fill="#3A3939"/>
<path d="M48.3894 13.0224L46.8441 11.4723C46.4079 11.0348 46.4079 10.3348 46.8441 9.90978L52.5641 4.17205C53.424 3.30951 54.8197 3.30951 55.6796 4.17205C56.5394 5.03458 56.5394 6.43464 55.6796 7.29717L49.9596 13.0349C49.5234 13.4599 48.8255 13.4599 48.3894 13.0224Z" fill="#3A3939"/>
<path d="M73.5997 38.0735H24.014V48.5114H73.5997V38.0735Z" fill="black"/>
<path d="M75.793 14.0601H33.647H21.8082H17.4092L16.674 38.7361H21.073L21.8082 18.4727H33.647H75.793L76.5407 38.7361H80.9397L80.192 14.0601H75.793Z" fill="#3A3939"/>
<path d="M67.7551 22.5229H72.7897L73.7617 19.0227V9.73486H54.3213H53.748H40.6007L35.2048 15.0851H24.4377L23.4657 18.5852V41.6987H52.776H53.3492H72.7897L73.7617 38.1985V28.9107H66.7831L67.7551 27.4731V22.5229Z" fill="#FF0000"/>
<path d="M52.7262 15.5351C60.6519 14.2976 66.8455 14.16 73.7742 16.3101V9.73486H54.3338H53.7605H40.6008L37.3732 12.935C41.012 15.2601 45.9469 16.5976 52.7262 15.5351Z" fill="#FF7700"/>
<path d="M43.0308 28.2231C51.804 24.5855 58.5707 23.0229 67.7551 24.473V22.5354H72.7897L73.7617 19.0353V16.3351C66.8454 14.1851 60.6519 14.3226 52.7137 15.5601C45.9344 16.6102 41.012 15.2726 37.3731 12.9475L35.2048 15.0976H24.4377L23.4657 18.5977V27.3731C28.0641 30.2482 34.3947 31.7983 43.0308 28.2231Z" fill="#FF3100"/>
<path d="M67.7551 24.4604C58.5707 23.0103 51.804 24.5854 43.0308 28.2105C34.4072 31.7857 28.0641 30.2356 23.4657 27.3605V41.6861H52.776H53.3492H72.7897L73.7617 38.186V28.8981H66.7831L67.7551 27.448V24.4604Z" fill="#FF0000"/>
<path d="M54.3212 38.1985L53.3492 41.6987H23.4657V18.5852L24.4377 15.0851H35.2048L40.6007 9.73486H54.3212V38.1985ZM52.776 36.6485V11.2849H41.2363L35.8403 16.6351H26.0204V36.6485H33.1486V22.8104H35.8154V36.6485H42.9436V17.4602H45.6104V36.636H52.776V36.6485Z" fill="#3A3939"/>
<path d="M73.7618 38.1985L72.7897 41.6987H52.776V13.235L53.748 9.73486H73.7618V19.0227L72.7897 22.5229H67.7551V27.4731L66.7831 28.9232H73.7618V38.1985ZM72.2165 36.6485V30.4732H62.4215V25.923H66.1974V21.5229H62.4215V17.4727H72.2165V11.2849H55.3307V36.636H72.2165V36.6485Z" fill="#3A3939"/>
<path d="M88.2424 50.099C89.9995 50.2865 85.6877 49.5865 87.4448 49.8115C87.9184 48.7114 86.5849 47.5614 87.071 46.4738C87.4573 43.4487 95.7195 41.3861 96.0933 38.361C89.1022 37.4735 82.0987 36.7859 75.0826 36.2859C74.8708 36.2734 74.6714 36.2609 74.4596 36.2359C69.7116 35.9109 64.9761 35.6609 60.2281 35.5109C58.2218 37.1985 56.2403 38.911 54.2838 40.6361C50.4456 40.5736 46.6073 40.5611 42.7691 40.6111C42.5572 41.3361 42.3578 42.0612 42.146 42.7737C40.3889 40.3236 38.5944 37.886 36.7625 35.4734C31.9273 35.6109 27.0796 35.8484 22.2569 36.1609C22.045 36.1734 21.8456 36.1859 21.6338 36.1984C14.6053 36.6734 7.60173 37.3485 0.623093 38.2235C0.411241 39.411 0.211851 40.5986 0 41.7736C0.785097 47.9739 1.55773 54.1741 2.34283 60.3744C4.79781 63.187 7.21541 66.0121 9.5707 68.8747C10.7795 68.7372 12.0008 68.6122 13.2096 68.4997C13.3093 69.5748 13.4214 70.6498 13.5211 71.7248C16.8733 71.3998 20.2256 71.1123 23.5903 70.8748C23.8146 69.7748 24.0389 68.6747 24.2757 67.5872C30.2325 67.1872 36.1892 66.9371 42.146 66.8496C42.3454 66.8496 42.5572 66.8371 42.7566 66.8371C52.2775 66.6996 61.8108 66.9496 71.3316 67.5872C71.5186 67.5997 71.7179 67.6122 71.9049 67.6247C78.3477 68.0622 82.6719 66.0746 89.0898 66.8621C89.5509 65.7621 90.7597 65.5621 91.2332 64.462C91.6195 61.4369 93.3642 60.1244 93.738 57.0993C91.3454 56.7992 88.9652 56.5117 86.5725 56.2617C86.9588 55.8242 87.3451 55.3867 87.719 54.9492C87.8934 53.3366 88.0679 51.7115 88.2424 50.099Z" fill="black"/>
<path d="M24.3255 67.3621C24.0763 68.5372 23.8395 69.6997 23.5903 70.8748C20.238 71.1123 16.8733 71.3873 13.5211 71.7248C13.4214 70.6498 13.3093 69.5747 13.2096 68.4997C12.0008 68.6247 10.7795 68.7497 9.5707 68.8747C7.21541 66.0246 4.81027 63.187 2.34283 60.3744C1.55773 54.1741 0.785097 47.9739 0 41.7736C0.19939 40.5861 0.411241 39.3985 0.623093 38.2235C7.81358 37.3359 15.029 36.6484 22.2569 36.1609C22.9423 46.5613 23.6277 56.9617 24.3255 67.3621ZM21.2475 45.8488C18.7426 46.0238 16.2378 46.2363 13.733 46.4613C14.057 50.0489 14.381 53.6366 14.7174 57.2367C13.8077 57.3242 12.898 57.4117 11.9883 57.4992C11.5521 53.0241 11.1035 48.5489 10.6673 44.0862C14.1317 43.7487 17.5961 43.4487 21.073 43.1987C20.9484 41.3986 20.8238 39.5985 20.6867 37.811C14.6178 38.2485 8.56129 38.8235 2.50483 39.536C3.16531 45.1112 3.82579 50.699 4.48627 56.2742C6.64217 58.7368 8.74822 61.2244 10.8169 63.737C12.2998 63.587 13.7703 63.437 15.2533 63.2995C15.353 64.3745 15.4527 65.4496 15.5524 66.5246C17.9201 66.3121 20.3004 66.1121 22.6681 65.9496C22.1946 59.2493 21.721 52.549 21.2475 45.8488Z" fill="#3A3939"/>
<path d="M43.6788 63.362C43.3672 64.5121 43.0557 65.6746 42.7441 66.8247C36.0895 66.9247 29.4349 67.1997 22.7803 67.6747C22.1198 58.3493 21.4593 49.0365 20.7988 39.7111C21.0605 38.5361 21.3347 37.361 21.6088 36.1985C26.6559 35.8485 31.6905 35.6109 36.75 35.4609C39.043 38.4861 41.2737 41.5362 43.4545 44.6113C43.5417 50.8615 43.6165 57.1118 43.6788 63.362ZM42.1086 61.8495C42.0214 56.2618 41.9341 50.674 41.8469 45.0863C39.9028 42.3862 37.9339 39.6861 35.9026 37.011C31.7528 37.136 27.5905 37.336 23.4407 37.5985C23.9641 45.9113 24.5 54.2117 25.0234 62.5245C27.4036 62.3745 29.7963 62.2495 32.1765 62.137C32.027 58.6244 31.865 55.0992 31.7154 51.5866C32.65 51.5491 33.5847 51.5116 34.5193 51.4741C34.6439 54.9992 34.7686 58.5118 34.8932 62.037C37.2983 61.9495 39.7035 61.887 42.1086 61.8495ZM34.3698 47.3239C33.4227 47.3614 32.4756 47.3989 31.5285 47.4364C31.4537 45.7363 31.3789 44.0238 31.3042 42.3237C32.3385 43.9863 33.3604 45.6488 34.3698 47.3239Z" fill="#3A3939"/>
<path d="M73.1136 64.2372C72.7024 65.3622 72.3036 66.4873 71.9048 67.6123C61.9977 66.9373 52.078 66.6748 42.1584 66.8373C42.0338 59.2495 41.9092 51.6617 41.797 44.0738C42.121 42.9238 42.445 41.7612 42.7815 40.6112C46.6197 40.5612 50.458 40.5612 54.2962 40.6362C56.2527 38.9111 58.2342 37.2111 60.2405 35.511C65.2004 35.6735 70.1477 35.9235 75.0951 36.2735C74.4221 45.5989 73.7616 54.9118 73.1136 64.2372ZM71.6556 62.5996C72.2039 54.2993 72.7522 45.9864 73.313 37.6861C69.1632 37.4111 65.0134 37.1986 60.8636 37.061C58.8573 38.7486 56.8883 40.4487 54.9318 42.1738C51.4425 42.1113 47.9656 42.0863 44.4763 42.1238C44.5386 48.699 44.5885 55.2618 44.6508 61.8371C47.0559 61.8121 49.4486 61.8246 51.8537 61.8496C51.9036 57.3119 51.9534 52.7617 52.0033 48.224C52.9379 48.2365 53.8601 48.249 54.7947 48.2615C54.7075 52.7992 54.6202 57.3494 54.5455 61.8871C56.9506 61.9371 59.3433 61.9996 61.7484 62.0996C61.9977 55.8118 62.2344 49.5116 62.4837 43.2238C63.4308 43.2613 64.3654 43.2988 65.3125 43.3488C65.0259 49.6366 64.7268 55.9243 64.4402 62.2246C66.8329 62.2996 69.2505 62.4371 71.6556 62.5996Z" fill="#3A3939"/>
<path d="M91.2208 64.4496C90.7472 65.5496 89.5384 66.5122 89.0773 67.6122C82.4726 66.7872 77.9489 68.0122 71.3192 67.5747C71.9423 58.2493 72.5529 48.9239 73.176 39.5985C73.5997 38.4735 74.0234 37.3484 74.4596 36.2234C81.6875 36.7234 88.8904 37.4359 96.0934 38.3485C95.7071 41.3736 82.4352 44.4112 82.0489 47.4364C81.5629 48.5364 84.7157 49.4739 84.2297 50.574C82.4726 50.3615 89.9871 50.299 88.2424 50.099C88.0679 51.7115 87.8935 53.3241 87.719 54.9492C87.3327 55.3867 86.9464 55.8242 86.5725 56.2617C88.9652 56.5117 91.3579 56.7992 93.7381 57.0993C93.3518 60.1119 91.6071 61.4244 91.2208 64.4496ZM91.2208 64.4496C91.47 62.437 91.7068 60.4244 91.956 58.4118C88.6163 57.9993 85.2889 57.6368 81.9367 57.3243C82.0738 55.8367 82.2109 54.3491 82.3604 52.8616C83.6689 52.9866 84.9774 53.1116 86.2734 53.2491C86.423 51.8115 86.5725 50.374 86.7221 48.9364C85.4011 48.7989 84.0801 48.6614 82.7592 48.5364C82.8838 47.2113 83.0084 45.8863 83.133 44.5737C86.5974 44.8988 90.0494 45.2738 93.5013 45.6988C93.7505 43.6862 93.9873 41.6736 94.2366 39.661C88.1926 38.9235 82.1361 38.3235 76.0672 37.8735C75.4566 46.1738 74.8459 54.4742 74.2353 62.7745C79.9054 63.1995 85.5756 63.762 91.2208 64.4496Z" fill="#3A3939"/>
<path d="M15.5524 66.4995C15.4527 65.4245 15.3531 64.3494 15.2534 63.2744C13.7704 63.4119 12.2999 63.5494 10.8169 63.7119C8.74827 61.2118 6.62976 58.7242 4.48632 56.2491C3.82584 50.6739 3.16536 45.0862 2.50488 39.511C8.54888 38.7859 14.6178 38.2109 20.6867 37.7859C20.7366 38.4234 20.774 39.0609 20.8238 39.6985C20.911 40.861 20.9858 42.0111 21.073 43.1736C17.6086 43.4236 14.1318 43.7111 10.6674 44.0611C11.1036 48.5363 11.5522 53.0115 11.9884 57.4742C12.8981 57.3867 13.8078 57.2992 14.7175 57.2117C14.3935 53.624 14.0695 50.0364 13.733 46.4362C16.2378 46.2112 18.7427 45.9987 21.2475 45.8237C21.7211 52.524 22.1946 59.2117 22.6682 65.912C20.3004 66.087 17.9327 66.287 15.5524 66.4995Z" fill="white"/>
<path d="M41.8096 45.0111C39.878 42.3235 37.9215 39.6484 35.9151 36.9983C31.7653 37.1233 27.603 37.3233 23.4532 37.5858C23.9766 45.8987 24.5125 54.199 25.0359 62.5119C27.4161 62.3619 29.8088 62.2368 32.189 62.1243C32.0395 58.6117 31.8775 55.0865 31.7279 51.5739C32.6626 51.5364 33.5972 51.4989 34.5318 51.4614C34.6565 54.9865 34.7811 58.4992 34.9057 62.0243C37.2984 61.9368 39.6786 61.8743 42.0713 61.8368C41.9965 56.2241 41.9093 50.6239 41.8096 45.0111ZM31.5535 47.4112C31.4787 45.7112 31.4039 43.9986 31.3291 42.2985C32.3635 43.9611 33.3853 45.6362 34.3948 47.2987C33.4352 47.3362 32.4881 47.3737 31.5535 47.4112Z" fill="white"/>
<path d="M73.1761 39.5858C72.8396 44.6611 72.5032 49.7488 72.1667 54.824C71.9922 57.4116 71.8178 59.9992 71.6557 62.5868C69.2506 62.4243 66.833 62.2868 64.4279 62.1743C64.7145 55.8865 65.0136 49.5988 65.3002 43.2985C64.3531 43.2485 63.4185 43.211 62.4714 43.1735C62.2221 49.4612 61.9854 55.7615 61.7361 62.0493C59.3434 61.9618 56.9383 61.8868 54.5332 61.8368C54.6204 57.2991 54.7076 52.7489 54.7824 48.2112C53.8478 48.1987 52.9256 48.1737 51.9909 48.1737C51.9411 52.7114 51.8913 57.2616 51.8414 61.7993C49.4363 61.7743 47.0436 61.7743 44.6385 61.7868C44.5761 55.2115 44.5263 48.6487 44.464 42.0734C47.9533 42.0484 51.4302 42.0609 54.9195 42.1234C56.876 40.4109 58.845 38.6983 60.8513 37.0107C65.0011 37.1482 69.1509 37.3608 73.3007 37.6358C73.2633 38.2983 73.2259 38.9358 73.1761 39.5858Z" fill="white"/>
<path d="M9.00997 38.811L3.81338 40.1486L5.75743 55.7992L11.4276 62.5995L15.9138 62.2495L16.2005 65.7621L22.6682 65.9371L15.5524 66.5121L15.2658 63.287L10.8294 63.7245L4.48632 56.2617L2.50488 39.5236L9.00997 38.811Z" fill="#E4E4E4"/>
<path d="M27.6903 37.3608L24.3256 38.5859L26.0079 61.5118L32.2015 62.1493L25.0359 62.5369L23.4532 37.6109L27.6903 37.3608Z" fill="#E4E4E4"/>
<path d="M34.5442 51.4866L35.3293 52.8491L35.8028 61.2995L42.0836 61.8495L34.918 62.037L34.5442 51.4866Z" fill="#E4E4E4"/>
<path d="M52.0033 48.1987L51.3552 49.3488L51.0063 60.9243L44.6508 61.8243H51.8537L52.0033 48.1987Z" fill="#E4E4E4"/>
<path d="M62.4712 43.1987L61.8481 44.8738L61.0132 61.0495L54.5455 61.8745L61.736 62.0745L62.4712 43.1987Z" fill="#E4E4E4"/>
<path d="M69.2629 37.4358L72.2164 38.5858L70.6462 61.7993L64.4277 62.1868L71.6556 62.5993L73.313 37.6858L69.2629 37.4358Z" fill="#E4E4E4"/>
<path d="M59.5428 44.3486C59.5802 44.1236 59.6051 43.8986 59.63 43.6486C59.655 43.4236 59.6674 43.186 59.6799 42.961L59.7173 42.5235C60.0911 42.0985 60.3528 41.5985 60.4774 41.0235C60.8513 39.3984 60.0537 38.3108 59.2687 37.6483C59.2811 37.5733 59.2936 37.4983 59.2936 37.4233V37.3608V37.2983C59.2811 37.1233 59.2313 36.9483 59.144 36.7858C59.0443 36.5983 58.9073 36.4233 58.7203 36.2608L58.6456 36.2108C58.3215 35.9608 57.9103 35.7857 57.4243 35.6732C57.2747 35.6357 57.1252 35.6107 57.0006 35.5982C56.1407 35.4982 55.7295 35.8107 55.5301 36.0858L54.3462 35.7732C53.1748 35.4732 51.9535 35.1732 50.6949 34.8857C48.4144 34.3607 46.9189 34.0607 46.0217 33.8982C46.0092 33.6982 45.9469 33.5107 45.8223 33.3481C45.7226 33.2231 45.598 33.1106 45.436 33.0106C45.2117 32.8856 44.9375 32.7981 44.6135 32.7481L44.5387 32.7356L44.4764 32.7231C44.4266 32.7231 44.3767 32.7106 44.3269 32.7106C44.2272 32.6981 44.1275 32.6981 44.0278 32.6981C43.5542 32.6856 43.1555 32.7231 42.8439 32.8231C42.5324 32.9231 42.308 33.0856 42.1834 33.2981C42.0713 33.4732 42.0339 33.6732 42.0713 33.8857C41.2986 34.1982 40.688 34.7357 40.2394 35.4857C39.9652 35.9483 39.7658 36.4858 39.6287 37.0983C39.5415 37.4858 39.5415 37.8858 39.6412 38.2733C39.2798 38.7609 39.0929 39.3984 38.9433 39.9109L38.9184 39.9984C38.8686 40.1734 38.8187 40.3609 38.7564 40.5484C38.4573 41.6485 38.2829 42.5485 38.2081 43.3986C38.1956 43.5611 38.1832 43.7236 38.1832 43.8861C38.1832 44.0361 38.1707 44.2236 38.1956 44.4111C38.2206 44.6111 38.2704 44.7861 38.3452 44.9361C38.5446 45.3361 38.9433 45.6111 39.4667 45.7361C39.5914 45.7612 39.716 45.7737 39.878 45.7862C39.9278 45.7862 39.9652 45.7862 40.0151 45.7862C40.2643 45.7737 40.526 45.7361 40.7628 45.6736C40.7752 45.6736 40.8251 45.6611 40.8375 45.6611C40.9996 45.6111 41.174 45.5611 41.336 45.4986C41.4108 45.4611 41.498 45.4361 41.5728 45.3986C41.6974 45.3361 41.822 45.2611 41.9591 45.1861C42.8564 44.6611 43.5916 43.9486 44.1399 43.3986C44.2147 43.3236 44.277 43.2611 44.3393 43.1985C44.4016 43.136 44.4515 43.0735 44.5013 43.0235C44.5138 43.011 44.5263 42.9985 44.5263 42.986C44.7755 43.0985 45.0372 43.161 45.3737 43.186C45.6852 43.211 45.9843 43.1985 46.2585 43.161C47.056 43.0235 47.4797 42.5735 47.6916 42.1735C47.7663 42.1735 47.8536 42.1735 47.9284 42.1735C48.3271 42.186 48.7134 42.236 49.0873 42.3235C49.6855 42.461 50.2587 42.7235 50.6077 42.8985C50.6201 43.2861 50.7697 43.7861 51.318 44.1611C51.7791 44.4861 52.3897 44.6986 52.938 44.7361L52.9879 44.9361C53.0751 45.3111 53.1997 45.8112 53.4116 46.2487C53.7605 46.9987 54.1842 47.6737 54.6578 48.2488C54.7325 48.3363 54.8073 48.4238 54.8821 48.5113C55.2933 48.9863 55.8666 49.5738 56.5893 49.7863C56.6267 49.7988 56.6641 49.8113 56.689 49.8113C56.9258 49.8613 57.1377 49.8613 57.3246 49.7863C57.8355 49.5988 58.0848 49.0738 58.2717 48.6863L58.4212 48.3738C58.5209 48.1487 58.6206 47.9112 58.7203 47.6737C58.8076 47.4487 58.8823 47.2112 58.9571 46.9612C59.1316 46.3737 59.2811 45.7362 59.4307 44.9611C59.4805 44.7236 59.5179 44.5236 59.5428 44.3486Z" fill="black"/>
<path d="M38.42 43.2734C38.4075 43.4359 38.395 43.5859 38.395 43.7485C38.395 43.8985 38.3826 44.0735 38.4075 44.236C38.3826 44.0735 38.3826 43.8985 38.395 43.7485C38.395 43.5859 38.4075 43.4359 38.42 43.2734Z" fill="white"/>
<path d="M44.3144 42.686C44.2645 42.736 44.2147 42.7985 44.1523 42.861C44.2022 42.7985 44.2645 42.7485 44.3144 42.686Z" fill="white"/>
<path d="M53.1249 44.3611C53.1498 44.4861 53.1747 44.6111 53.2121 44.7361C53.1747 44.5986 53.1498 44.4736 53.1249 44.3611Z" fill="white"/>
<path d="M47.7912 37.8858C47.8036 37.8858 47.8036 37.8858 47.7912 37.8858L52.913 38.9859C53.2993 39.0734 53.6981 38.8484 53.8352 38.4858L54.6576 36.2733C53.6482 36.0108 52.2276 35.6607 50.5079 35.2607C49.2492 34.9732 48.2523 34.7607 47.4547 34.5857L47.1681 37.0108C47.1307 37.4108 47.3924 37.7858 47.7912 37.8858Z" fill="black"/>
<path d="M59.2188 42.911C59.2312 42.7985 59.2312 42.686 59.2437 42.586C58.0473 43.686 56.2528 43.7611 56.2279 43.7611C56.2404 43.7611 57.0379 43.561 57.9103 43.211C59.0692 42.7485 59.7796 41.9735 60.0163 40.9109C60.2531 39.8484 59.9789 38.9234 59.1814 38.1483C58.5832 37.5608 57.9601 37.1358 57.9477 37.1358C57.9601 37.1358 58.334 37.2983 58.7826 37.6108C58.8449 37.3983 58.82 37.1608 58.7078 36.9358C58.496 36.5108 57.9726 36.1857 57.2623 36.0232C56.2528 35.7857 55.8665 36.0857 55.717 36.3607C56.1656 36.4857 56.4148 36.5483 56.4273 36.5608C56.4148 36.5608 55.8167 36.5608 54.8322 36.2982L53.9972 38.5358C53.8352 38.9859 53.3492 39.2484 52.8881 39.1484L47.7788 38.0483H47.7663C47.2803 37.9358 46.9563 37.4858 47.0186 36.9858L47.3052 34.5482C45.6104 34.1982 44.9624 33.9356 44.9499 33.9356C44.9499 33.9356 45.1369 33.9606 45.5481 34.0356C45.5606 33.9106 45.5606 33.7356 45.436 33.5606C45.2241 33.2606 44.7132 33.0981 43.9654 33.0731C42.9436 33.0481 42.5946 33.2856 42.47 33.4856C42.3579 33.6606 42.4077 33.8606 42.4451 33.9606C42.7691 33.8606 43.0557 33.8356 43.2302 33.8106L43.3299 33.7981C42.6071 33.8856 40.6008 34.2982 39.9527 37.1733C39.5789 38.8483 41.3485 39.9234 41.3609 39.9359C41.2612 39.8859 40.3017 39.4859 39.9029 38.4858C39.5913 38.9108 39.4169 39.5109 39.2673 39.9984L39.2424 40.0859C38.9184 41.1984 38.5695 42.511 38.5321 43.8736C38.5196 44.1486 38.5196 44.4611 38.6567 44.7236C38.8935 45.1861 39.4667 45.3736 39.9403 45.3611C40.3889 45.3486 40.8998 45.2111 41.336 44.9986C42.3329 44.4986 43.1804 43.6985 43.8034 43.061C44.0028 42.8735 44.1524 42.711 44.277 42.561C43.6539 42.1485 43.7411 41.511 43.7411 41.4985C43.7411 41.5485 43.8658 42.5985 45.3612 42.736C46.7694 42.861 47.2803 42.161 47.4548 41.536C47.4423 41.5735 47.5919 41.6735 47.5669 41.711C47.9657 41.711 48.514 41.736 49.1371 41.8735C49.7851 42.0235 50.3958 42.2985 50.8195 42.511C50.8569 42.2735 50.9316 42.1235 50.9316 42.111C50.9067 42.1485 50.6325 43.161 51.4924 43.7611C52.4021 44.3861 53.6982 44.5236 54.1468 44.2486C53.9474 44.3736 53.6359 44.4486 53.262 44.4486C53.3742 44.9611 53.4988 45.5236 53.7231 46.0111C54.0596 46.7362 54.4583 47.3737 54.9194 47.9362C55.4179 48.5487 55.9787 49.1363 56.6516 49.3363C56.8386 49.3988 57.0006 49.3988 57.1376 49.3488C57.4866 49.2238 57.686 48.8113 57.8604 48.4487L57.9227 48.3112C58.147 47.8487 58.3464 47.3487 58.5209 46.7737C58.7826 45.8986 58.9571 44.9986 59.0817 44.2486C59.1565 43.8111 59.1814 43.361 59.2188 42.911Z" fill="url(#paint0_linear)"/>
<path d="M56.6392 49.4113C56.0161 49.2237 55.5052 48.7487 55.0441 48.2112C55.5052 48.7362 56.0161 49.2237 56.6392 49.4113Z" fill="white"/>
<path d="M40.7503 45.2861C40.7378 45.2861 40.7254 45.2986 40.7129 45.2986C40.7254 45.2861 40.7378 45.2861 40.7503 45.2861Z" fill="white"/>
<path d="M39.8281 45.3986C39.878 45.3986 39.9278 45.4111 39.9777 45.3986C40.2144 45.3861 40.4637 45.3486 40.7129 45.2861C40.4637 45.3486 40.2144 45.3861 39.9777 45.3986C39.9278 45.4111 39.878 45.3986 39.8281 45.3986Z" fill="white"/>
<path d="M46.1962 42.761C46.9563 42.6234 47.3427 42.1734 47.5296 41.7734C47.6417 41.7734 47.7788 41.7734 47.9284 41.7734C47.7788 41.7734 47.6542 41.7609 47.5296 41.7734C47.3427 42.1734 46.9688 42.6234 46.1962 42.761Z" fill="white"/>
<path d="M41.2114 45.1235C41.2862 45.0985 41.361 45.061 41.4357 45.0235C41.5604 44.961 41.6725 44.8985 41.7971 44.8235C41.685 44.886 41.5604 44.961 41.4357 45.0235C41.361 45.061 41.2862 45.0985 41.2114 45.1235Z" fill="white"/>
<path d="M58.4835 36.2607C58.496 36.2732 58.5084 36.2732 58.5209 36.2857C58.5084 36.2732 58.496 36.2732 58.4835 36.2607Z" fill="black"/>
<path d="M41.8096 44.8235C41.8096 44.8235 41.7971 44.8235 41.7971 44.836C41.7971 44.8235 41.7971 44.8235 41.8096 44.8235Z" fill="black"/>
<path d="M41.2113 45.1235C41.0618 45.186 40.8998 45.2361 40.7502 45.2861C40.8998 45.2361 41.0618 45.186 41.2113 45.1235Z" fill="black"/>
<path d="M41.8096 44.8237C42.6694 44.3236 43.3922 43.6236 43.953 43.0611C44.0278 42.9861 44.0901 42.9236 44.1524 42.8611C44.0901 42.9236 44.0278 42.9861 43.953 43.0611C43.3922 43.6236 42.6694 44.3111 41.8096 44.8237Z" fill="black"/>
<path d="M44.9998 42.7234C44.788 42.6734 44.6135 42.6109 44.464 42.5234C44.4266 42.5734 44.3768 42.6234 44.3269 42.6859C44.3768 42.6359 44.4266 42.5734 44.464 42.5234C44.6011 42.6109 44.788 42.6734 44.9998 42.7234C45.1245 42.7484 45.2491 42.7734 45.3862 42.7859C45.6977 42.8109 45.9719 42.7984 46.2086 42.7609C45.9719 42.7984 45.6977 42.8109 45.3862 42.7859C45.2366 42.7734 45.112 42.7484 44.9998 42.7234Z" fill="black"/>
<path d="M51.4426 43.811C50.9192 43.4485 50.8195 42.9735 50.8444 42.5985C50.4955 42.411 49.835 42.0984 49.1371 41.9359C48.6885 41.8359 48.2773 41.7859 47.9283 41.7734C48.2648 41.7859 48.6885 41.8234 49.1371 41.9359C49.835 42.0984 50.483 42.411 50.8444 42.5985C50.8195 42.961 50.9192 43.4485 51.4426 43.811C51.779 44.0485 52.1529 44.1985 52.5267 44.286C52.7386 44.336 52.938 44.361 53.1249 44.361C52.938 44.3485 52.7261 44.3235 52.5267 44.286C52.1529 44.1985 51.779 44.036 51.4426 43.811Z" fill="black"/>
<path d="M38.9558 40.4734C38.719 41.3359 38.4947 42.286 38.4199 43.2735C38.4947 42.286 38.7065 41.3234 38.9558 40.4734Z" fill="black"/>
<path d="M38.5321 44.6737C38.4573 44.5362 38.4199 44.3861 38.4075 44.2236C38.4199 44.3861 38.4573 44.5362 38.5321 44.6737C38.719 45.0487 39.1053 45.2612 39.4916 45.3487C39.6038 45.3737 39.716 45.3862 39.8281 45.3862C39.716 45.3862 39.6038 45.3737 39.4916 45.3487C39.0929 45.2612 38.719 45.0487 38.5321 44.6737Z" fill="black"/>
<path d="M58.7203 46.7236C58.6455 46.9736 58.5708 47.1986 58.4835 47.4236C58.5583 47.2111 58.6455 46.9736 58.7203 46.7236C58.9197 46.0486 59.0693 45.3611 59.1939 44.7485C59.0693 45.3736 58.9197 46.0486 58.7203 46.7236Z" fill="black"/>
<path d="M58.0473 48.4238C57.8729 48.7988 57.6486 49.2613 57.2373 49.4113C57.1002 49.4613 56.9258 49.4738 56.7388 49.4238C56.7139 49.4113 56.6765 49.4113 56.6516 49.3988C56.6765 49.4113 56.7139 49.4113 56.7388 49.4238C56.9258 49.4613 57.1002 49.4613 57.2373 49.4113C57.6486 49.2613 57.8729 48.7988 58.0473 48.4238L58.1096 48.2988C58.1346 48.2363 58.1595 48.1738 58.1969 48.1238C58.172 48.1863 58.147 48.2488 58.1096 48.2988L58.0473 48.4238Z" fill="black"/>
<path d="M53.6109 45.9986C53.424 45.5986 53.2994 45.1611 53.2122 44.7361C53.2994 45.1486 53.424 45.5986 53.6109 45.9986C53.9599 46.7362 54.3586 47.3862 54.8197 47.9487C54.8945 48.0362 54.9693 48.1237 55.0316 48.2113C54.9568 48.1237 54.882 48.0362 54.8197 47.9487C54.3586 47.3862 53.9599 46.7237 53.6109 45.9986Z" fill="black"/>
<path d="M39.8156 37.0232C39.9527 36.3981 40.1646 35.8856 40.4013 35.4856C40.1646 35.8856 39.9527 36.3856 39.8156 37.0232C39.7159 37.4482 39.7533 37.8482 39.8655 38.1857C39.7533 37.8357 39.7159 37.4482 39.8156 37.0232Z" fill="black"/>
<path d="M59.1315 44.8486C59.1689 44.6486 59.2063 44.461 59.2312 44.286C59.2686 44.061 59.2935 43.8485 59.3184 43.6235C59.3184 43.611 59.3184 43.611 59.3184 43.5985C59.3434 43.3735 59.3558 43.1485 59.3683 42.9235C59.3807 42.811 59.3807 42.6985 59.3932 42.586C59.3932 42.5235 59.4057 42.461 59.4057 42.3985C59.7546 42.0234 60.0288 41.5484 60.1658 40.9484C60.5272 39.3483 59.6674 38.2983 58.9197 37.7108C58.957 37.6108 58.982 37.4983 58.982 37.3983C58.982 37.3733 58.982 37.3483 58.982 37.3358C58.982 37.3233 58.982 37.3108 58.982 37.2983C58.9695 37.1482 58.9321 37.0107 58.8573 36.8732C58.7701 36.7107 58.6455 36.5607 58.4835 36.4232C58.471 36.4107 58.471 36.4107 58.4586 36.3982C58.4461 36.3857 58.4336 36.3857 58.4212 36.3732C58.1346 36.1482 57.7482 35.9857 57.2872 35.8732C57.1376 35.8357 57.013 35.8107 56.8884 35.7982C56.0285 35.6982 55.6796 36.0357 55.5425 36.3232C55.53 36.3232 55.5176 36.3107 55.5051 36.3107C55.3431 36.2732 55.1686 36.2232 54.9693 36.1732C54.8571 36.1482 54.7449 36.1107 54.6203 36.0857C54.4832 36.0482 54.3462 36.0107 54.1966 35.9732C53.2371 35.7232 52.0033 35.4232 50.5453 35.0857C48.0405 34.5106 46.5077 34.2106 45.6852 34.0606C45.6976 34.0106 45.6976 33.9606 45.6976 33.9106C45.6976 33.7731 45.6603 33.6106 45.5481 33.4606C45.4733 33.3606 45.3612 33.2606 45.2366 33.1856C45.0496 33.0731 44.8004 32.9981 44.5013 32.9481C44.4764 32.9481 44.439 32.9356 44.4016 32.9356C44.3518 32.9231 44.2895 32.9231 44.2271 32.9106C44.1399 32.8981 44.0402 32.8981 43.9405 32.8981C43.4794 32.8856 43.118 32.9231 42.8314 33.0231C42.5822 33.1106 42.3953 33.2231 42.2956 33.3981C42.1709 33.6106 42.1959 33.8356 42.2457 33.9731C42.2457 33.9856 42.2582 33.9981 42.2582 34.0106C41.6351 34.2231 40.8998 34.6481 40.3515 35.5857C40.1147 35.9982 39.9029 36.4982 39.7658 37.1232C39.6661 37.5483 39.7035 37.9483 39.8157 38.2858C39.4418 38.7483 39.2424 39.3983 39.0929 39.9359L39.0679 40.0234C39.0181 40.1984 38.9683 40.3859 38.9059 40.5734C38.6692 41.4359 38.4449 42.386 38.3701 43.3735C38.3576 43.536 38.3452 43.686 38.3452 43.8485C38.3452 43.9985 38.3327 44.1735 38.3576 44.336C38.3701 44.4861 38.4075 44.6361 38.4822 44.7861C38.6692 45.1611 39.0555 45.3736 39.4418 45.4611C39.554 45.4861 39.6661 45.4986 39.7783 45.4986C39.8281 45.4986 39.878 45.5111 39.9278 45.4986C40.1646 45.4861 40.4138 45.4486 40.6631 45.3861C40.6755 45.3861 40.688 45.3736 40.7004 45.3736C40.8624 45.3361 41.012 45.2736 41.1615 45.2111C41.2363 45.1861 41.3111 45.1486 41.3858 45.1111C41.5105 45.0486 41.6226 44.9861 41.7472 44.9111C41.7472 44.9111 41.7597 44.9111 41.7597 44.8986C42.6196 44.386 43.3424 43.6985 43.9031 43.136C43.9779 43.061 44.0402 42.9985 44.1025 42.936C44.1648 42.8735 44.2147 42.8235 44.2645 42.761C44.3144 42.711 44.3642 42.6485 44.4016 42.5985C44.5512 42.6735 44.7256 42.7485 44.9375 42.7985C45.0621 42.8235 45.1867 42.8485 45.3238 42.861C45.6353 42.886 45.9095 42.8735 46.1463 42.836C46.9064 42.6985 47.3301 42.286 47.5171 41.8859C47.6292 41.8859 47.7289 41.8484 47.8785 41.8484C48.2149 41.8609 48.6386 41.8984 49.0873 42.0109C49.7851 42.1735 50.4331 42.486 50.7945 42.6735C50.7696 43.0485 50.8693 43.5235 51.3927 43.886C51.7292 44.1235 52.103 44.2735 52.4769 44.361C52.6887 44.411 52.8881 44.436 53.0751 44.436C53.1 44.5611 53.1249 44.6861 53.1498 44.8111C53.2495 45.2361 53.3617 45.6736 53.5486 46.0736C53.8975 46.8111 54.2963 47.4612 54.7699 48.0237C54.8446 48.1112 54.9194 48.1987 54.9817 48.2862C55.4428 48.8237 55.9662 49.3112 56.5768 49.4863C56.6018 49.4988 56.6391 49.4988 56.6641 49.5113C56.851 49.5488 57.0255 49.5488 57.1625 49.4988C57.5738 49.3488 57.7981 48.8862 57.9726 48.5112L58.0349 48.3862C58.0598 48.3237 58.0847 48.2612 58.1221 48.2112C58.2218 47.9987 58.3215 47.7612 58.4087 47.5237C58.496 47.2987 58.5707 47.0737 58.6455 46.8236C58.8698 46.1611 59.0194 45.4736 59.1315 44.8486ZM50.5204 35.2482C52.2401 35.6482 53.6608 35.9982 54.6702 36.2607L53.8477 38.4733C53.7106 38.8483 53.3118 39.0608 52.9255 38.9733L47.8162 37.8733H47.8037C47.4049 37.7858 47.1308 37.4108 47.1806 36.9982L47.4672 34.5731C48.2523 34.7356 49.2617 34.9607 50.5204 35.2482ZM58.5084 46.7861C58.334 47.3612 58.1346 47.8737 57.9102 48.3237L57.8479 48.4612C57.6735 48.8237 57.4741 49.2362 57.1252 49.3612C57.0005 49.4113 56.8261 49.3988 56.6391 49.3487C55.9662 49.1487 55.4054 48.5612 54.9069 47.9487C54.4583 47.3987 54.0471 46.7486 53.7106 46.0236C53.4738 45.5361 53.3492 44.9736 53.2495 44.4611C53.6234 44.4611 53.9474 44.3735 54.1343 44.261C53.6981 44.5361 52.3897 44.3985 51.4799 43.7735C50.6201 43.1735 50.8942 42.161 50.9192 42.1235C50.9192 42.1235 50.8444 42.286 50.807 42.5235C50.3833 42.2985 49.7727 42.0234 49.1247 41.8859C48.514 41.7484 47.9532 41.7109 47.5545 41.7234C47.5669 41.6734 47.4298 41.5859 47.4423 41.5484C47.2678 42.161 46.7569 42.8735 45.3487 42.7485C43.8533 42.611 43.7287 41.5484 43.7287 41.5109C43.7287 41.5234 43.5044 42.2985 44.1399 42.711C44.0153 42.861 43.9779 42.8735 43.791 43.061C43.1679 43.6985 42.3205 44.4986 41.3235 44.9986C40.8874 45.2111 40.3889 45.3486 39.9278 45.3611C39.4543 45.3736 38.8686 45.1861 38.6442 44.7236C38.5072 44.461 38.5072 44.1485 38.5196 43.8735C38.5695 42.5235 38.9059 41.1984 39.2299 40.0859L39.2549 39.9984C39.392 39.5108 39.5664 38.9233 39.8904 38.4858C40.2892 39.4733 41.3485 39.9359 41.3485 39.9359C41.336 39.9234 39.554 38.8358 39.9403 37.1732C40.5883 34.3106 42.5946 33.8981 43.3174 33.7981L43.2177 33.8106C43.0308 33.8356 42.7566 33.8731 42.4326 33.9606C42.3953 33.8606 42.3454 33.6606 42.4576 33.4856C42.5822 33.2856 42.9436 33.0481 43.953 33.0731C44.7007 33.0981 45.2116 33.2606 45.4235 33.5606C45.5481 33.7231 45.5606 33.8981 45.5356 34.0356C45.1244 33.9606 44.9375 33.9356 44.9375 33.9356C44.9499 33.9356 45.5979 34.1981 47.2928 34.5481L47.0061 36.9857C46.9438 37.4858 47.2678 37.9358 47.7538 38.0483H47.7663L52.8757 39.1483C53.3492 39.2483 53.8228 38.9858 53.9848 38.5358L54.8197 36.2982C55.8042 36.5607 56.4148 36.5482 56.4148 36.5607C56.4024 36.5607 56.1656 36.4857 55.7045 36.3607C55.8416 36.0982 56.2279 35.7982 57.2498 36.0232C57.9726 36.1857 58.4835 36.5107 58.6953 36.9357C58.8075 37.1607 58.8324 37.3858 58.7701 37.6108C58.3215 37.2858 57.9476 37.1357 57.9352 37.1357C57.9476 37.1357 58.5583 37.5608 59.1689 38.1483C59.9665 38.9233 60.2406 39.8484 60.0038 40.9109C59.7671 41.9734 59.0567 42.7485 57.8978 43.211C57.0255 43.561 56.2279 43.761 56.2154 43.761C56.2404 43.761 58.0349 43.686 59.2312 42.586C59.2187 42.6985 59.2187 42.811 59.2063 42.911C59.1814 43.3485 59.144 43.811 59.0692 44.261C58.9446 45.0111 58.7701 45.9111 58.5084 46.7861Z" fill="black"/>
<g opacity="0.3">
<path opacity="0.3" d="M45.5606 39.5233C45.5606 39.5233 44.0278 39.6984 43.7038 41.0359C43.7038 41.0359 43.3673 40.5609 42.4826 40.3109C42.4826 40.3109 43.4421 43.836 40.7753 45.1861C38.9558 46.0986 44.788 46.2486 44.788 46.2486C44.788 46.2486 49.8101 39.4858 45.5606 39.5233Z" fill="black"/>
<path opacity="0.3" d="M57.9476 37.1357C58.7701 39.6858 57.7981 41.6984 55.3556 42.411C54.3711 42.6985 53.6981 43.636 53.8103 44.6611C53.8726 45.2111 54.0097 45.8361 54.3337 46.4736C55.2683 48.3737 57.7607 48.9862 58.2093 48.1112C59.3185 45.9736 60.0537 42.7235 59.1814 42.511C58.2218 43.311 57.3245 43.3985 56.1656 43.686C62.895 42.311 57.9476 37.1357 57.9476 37.1357Z" fill="black"/>
</g>
<path d="M42.4825 37.4233L41.498 37.1983C41.4232 37.1858 41.3734 37.0982 41.3858 37.0232L41.5852 36.1232C41.5977 36.0482 41.6849 35.9982 41.7597 36.0107L42.7442 36.2357C42.7815 36.2482 42.8189 36.2732 42.8439 36.3107L43.118 36.8482C43.1554 36.9107 43.1305 36.9857 43.0806 37.0357L42.6071 37.3983C42.5697 37.4233 42.5198 37.4233 42.4825 37.4233Z" fill="black"/>
<path d="M44.1897 36.5606L45.1742 36.7856C45.249 36.7981 45.2988 36.8856 45.2863 36.9606L45.0869 37.8606C45.0745 37.9356 44.9873 37.9856 44.9125 37.9731L43.928 37.7481C43.8906 37.7356 43.8532 37.7106 43.8283 37.6731L43.5541 37.1356C43.5167 37.0731 43.5417 36.9981 43.5915 36.9481L44.0651 36.5856C44.1025 36.5606 44.1398 36.5481 44.1897 36.5606Z" fill="black"/>
<path d="M42.9061 36.1356L43.1305 35.1481C43.1429 35.0731 43.2301 35.0231 43.3049 35.0356L44.2022 35.2356C44.2769 35.2481 44.3268 35.3356 44.3143 35.4106L44.09 36.3982C44.0776 36.4357 44.0526 36.4732 44.0152 36.4982L43.4794 36.7732C43.4171 36.8107 43.3423 36.7857 43.2925 36.7357L42.9311 36.2607C42.9061 36.2232 42.8937 36.1732 42.9061 36.1356Z" fill="black"/>
<path d="M43.766 37.8482L43.5417 38.8358C43.5293 38.9108 43.442 38.9608 43.3673 38.9483L42.47 38.7482C42.3953 38.7357 42.3454 38.6482 42.3579 38.5732L42.5822 37.5857C42.5946 37.5482 42.6196 37.5107 42.6569 37.4857L43.1928 37.2107C43.2551 37.1732 43.3299 37.1982 43.3797 37.2482L43.7411 37.7232C43.766 37.7607 43.766 37.7982 43.766 37.8482Z" fill="black"/>
<path d="M55.3058 40.4358C55.7462 40.4358 56.1033 40.0776 56.1033 39.6357C56.1033 39.1939 55.7462 38.8357 55.3058 38.8357C54.8653 38.8357 54.5082 39.1939 54.5082 39.6357C54.5082 40.0776 54.8653 40.4358 55.3058 40.4358Z" fill="black"/>
<path d="M58.2716 41.1233C58.7121 41.1233 59.0691 40.7651 59.0691 40.3232C59.0691 39.8814 58.7121 39.5232 58.2716 39.5232C57.8311 39.5232 57.474 39.8814 57.474 40.3232C57.474 40.7651 57.8311 41.1233 58.2716 41.1233Z" fill="black"/>
<path d="M57.1126 39.4858C57.5531 39.4858 57.9102 39.1276 57.9102 38.6858C57.9102 38.2439 57.5531 37.8857 57.1126 37.8857C56.6721 37.8857 56.3151 38.2439 56.3151 38.6858C56.3151 39.1276 56.6721 39.4858 57.1126 39.4858Z" fill="black"/>
<path d="M56.4896 42.2485C56.9301 42.2485 57.2872 41.8903 57.2872 41.4485C57.2872 41.0066 56.9301 40.6484 56.4896 40.6484C56.0491 40.6484 55.692 41.0066 55.692 41.4485C55.692 41.8903 56.0491 42.2485 56.4896 42.2485Z" fill="black"/>
<path d="M47.8037 41.2984C48.1526 41.2609 49.4362 40.9359 50.4581 41.9735C50.4581 41.9735 50.3085 40.8609 49.4113 40.6484C48.514 40.4359 47.8037 41.2984 47.8037 41.2984Z" fill="black"/>
<path d="M45.6976 42.3233C46.4684 42.3233 47.0933 41.6965 47.0933 40.9233C47.0933 40.15 46.4684 39.5232 45.6976 39.5232C44.9268 39.5232 44.3019 40.15 44.3019 40.9233C44.3019 41.6965 44.9268 42.3233 45.6976 42.3233Z" fill="black"/>
<path d="M46.8192 41.1734C46.9563 40.5484 46.57 39.9234 45.9469 39.7859C45.5979 39.7109 45.2365 39.7984 44.9749 39.9984C45.2116 39.8859 45.4733 39.8484 45.7475 39.9109C46.3706 40.0484 46.7569 40.6734 46.6198 41.2985C46.5575 41.5735 46.408 41.7985 46.2086 41.961C46.5076 41.811 46.7444 41.536 46.8192 41.1734Z" fill="#2D2D2D"/>
<path d="M53.0626 43.836C53.8334 43.836 54.4583 43.2092 54.4583 42.4359C54.4583 41.6627 53.8334 41.0359 53.0626 41.0359C52.2918 41.0359 51.6669 41.6627 51.6669 42.4359C51.6669 43.2092 52.2918 43.836 53.0626 43.836Z" fill="black"/>
<path d="M54.1967 42.6859C54.3337 42.0609 53.9474 41.4358 53.3243 41.2983C52.9754 41.2233 52.614 41.3108 52.3523 41.5109C52.5891 41.3983 52.8508 41.3608 53.1249 41.4233C53.748 41.5609 54.1343 42.1859 53.9973 42.8109C53.935 43.0859 53.7854 43.3109 53.586 43.4734C53.8851 43.3234 54.1219 43.0484 54.1967 42.6859Z" fill="#2D2D2D"/>
<path d="M48.3894 39.561L46.1338 39.0484L51.1185 33.0232L53.3617 33.5357L48.3894 39.561Z" fill="white"/>
<path d="M49.3365 39.7733L48.676 39.6233L53.6608 33.6106L54.3212 33.7606L49.3365 39.7733Z" fill="white"/>
<path d="M41.336 39.9235C41.336 39.9235 39.9402 39.6734 39.4542 38.8734L39.8156 38.2859C39.8032 38.2984 40.339 39.4109 41.336 39.9235Z" fill="black"/>
<g opacity="0.4">
<path opacity="0.4" d="M44.4888 33.1733C44.4888 33.1733 42.3453 32.9108 42.4575 33.7733C42.5198 33.6608 42.632 33.4608 43.3174 33.2608C43.5915 33.1858 44.2146 33.1608 44.4888 33.1733Z" fill="white"/>
<path opacity="0.4" d="M42.9061 33.9983C42.7067 34.0733 42.4823 34.1108 42.283 34.1983C42.0836 34.2858 41.8842 34.3983 41.6973 34.5358C41.3234 34.8108 41.0243 35.1608 40.7502 35.5234C40.6754 35.6234 40.6006 35.7359 40.5258 35.8359C39.9651 36.7234 39.8903 37.8984 40.4885 38.786C40.7003 39.111 40.8997 39.4485 41.2486 39.6485C41.2112 39.6235 41.1739 39.5235 41.1489 39.486C41.0617 39.336 40.9869 39.1735 40.9246 39.0235C40.7128 38.5485 40.5508 38.036 40.5009 37.5234C40.4386 36.9109 40.5383 36.3109 40.8748 35.7859C41.0991 35.4358 41.3857 35.1483 41.6973 34.8608C42.0587 34.5108 42.4325 34.1733 42.9061 33.9983Z" fill="white"/>
<path opacity="0.4" d="M41.2487 40.0612C41.4605 40.0612 39.8405 39.6987 39.6536 39.3987C39.6536 39.3987 38.4448 42.2863 38.7439 44.3364C38.7439 44.3364 39.3046 40.1112 39.7408 39.8487C39.7408 39.8612 40.4387 40.0487 41.2487 40.0612Z" fill="white"/>
</g>
<path d="M51.6169 35.2609C51.6169 35.2609 56.8883 27.6231 65.0633 36.1234" stroke="black" stroke-width="4" stroke-miterlimit="10"/>
<path d="M86.5351 69.5872C86.5226 69.5872 86.5101 69.5872 86.4977 69.5997C86.5101 69.5997 86.5226 69.5997 86.5351 69.5872Z" fill="black"/>
<path d="M95.6323 45.3862C95.6696 45.3737 95.6946 45.3612 95.7319 45.3487C96.0809 45.2112 96.3426 45.0987 96.542 44.9487C96.5669 44.9362 96.5793 44.9237 96.6043 44.9112C97.1277 44.5862 97.4517 43.9611 97.5015 43.2236L97.6635 40.1985C97.7009 39.436 97.3271 38.7359 96.6666 38.3609L87.7813 33.3232C87.7564 33.3107 87.7314 33.2982 87.6941 33.2857C87.6691 33.2732 87.6442 33.2607 87.6068 33.2482C87.5819 33.2357 87.5445 33.2357 87.5071 33.2232C87.4697 33.2232 87.4448 33.2107 87.4074 33.2107C87.37 33.2107 87.3327 33.2107 87.2953 33.2107C87.2579 33.2107 87.233 33.2232 87.1956 33.2232C87.1707 33.2357 87.1333 33.2357 87.0959 33.2482C87.071 33.2607 87.0336 33.2732 87.0087 33.2857L76.4161 38.1859C75.631 38.5484 75.1076 39.3109 75.0702 40.186L73.9611 60.3743C73.9113 61.2118 74.3225 62.0119 75.0204 62.4619L80.3042 65.887L84.9898 69.0997C85.0023 69.0997 85.0023 69.1122 85.0148 69.1122C85.0148 69.1122 85.0272 69.1122 85.0272 69.1247C85.0771 69.1497 85.1144 69.1622 85.1269 69.1747C85.1518 69.1872 85.1643 69.1872 85.1892 69.1997C85.2017 69.1997 85.2017 69.1997 85.2141 69.2122C85.2765 69.2372 85.3512 69.2497 85.4135 69.2497C85.4883 69.2497 85.5631 69.2497 85.6503 69.2247H85.6628C85.6752 69.2247 85.7002 69.2122 85.7251 69.1997C85.7625 69.1872 85.7999 69.1747 85.8248 69.1622C85.8248 69.1622 85.8372 69.1622 85.8372 69.1497C85.8372 69.1497 85.8372 69.1497 85.8497 69.1497C85.8497 69.1497 85.8622 69.1497 85.8622 69.1372L86.9713 68.5121C87.0336 68.4871 87.0959 68.4622 87.1457 68.4247L93.6882 64.837C93.7879 64.787 93.8876 64.712 93.9873 64.637L95.3456 63.912C95.5699 63.787 95.7693 63.6369 95.9313 63.4369C95.9438 63.4244 95.9438 63.4119 95.9563 63.4119C96.2553 63.0619 96.4298 62.6244 96.4547 62.1744L96.866 54.7991C96.8909 54.2866 96.6915 53.799 96.3177 53.4615C96.2553 53.399 96.193 53.349 96.1183 53.299C95.9687 53.124 95.7693 53.0115 95.6447 52.9365L91.3578 50.1489L91.5572 46.4862L95.6323 45.3862Z" fill="black"/>
<path d="M84.4416 70.8496C84.4291 70.8496 84.4291 70.8496 84.4416 70.8496C84.4291 70.8496 84.4166 70.8496 84.4042 70.8622C84.4166 70.8496 84.4291 70.8496 84.4416 70.8496Z" fill="black"/>
<path d="M95.3829 44.7863C95.3954 44.7863 95.4079 44.7738 95.4203 44.7738C95.7817 44.6237 96.006 44.5362 96.1306 44.4237C96.1556 44.4112 96.1805 44.3987 96.2054 44.3862C96.5793 44.1487 96.816 43.6987 96.841 43.1237L97.003 40.0986C97.0279 39.5485 96.7537 39.0485 96.2802 38.7735L87.3824 33.7233C87.37 33.7233 87.37 33.7233 87.3575 33.7108C87.345 33.7108 87.3326 33.6983 87.3201 33.6983C87.3077 33.6983 87.2952 33.6983 87.2827 33.6858C87.2703 33.6858 87.2578 33.6858 87.2454 33.6858C87.2329 33.6858 87.2204 33.6858 87.208 33.6858C87.1955 33.6858 87.183 33.6858 87.1706 33.6858C87.1581 33.6858 87.1457 33.6983 87.1332 33.6983C87.1207 33.6983 87.1207 33.6983 87.1083 33.7108L76.5157 38.611C75.9176 38.886 75.5188 39.4735 75.4814 40.1361L74.3723 60.3244C74.3349 60.9619 74.6464 61.5744 75.1823 61.9245L80.4786 65.3496L85.1642 68.5622C85.1767 68.5747 85.1892 68.5747 85.2016 68.5747C85.2141 68.5747 85.2141 68.5872 85.2265 68.5872C85.2515 68.5997 85.2764 68.5997 85.3013 68.5997C85.3262 68.5997 85.3512 68.5997 85.3761 68.5872C85.3885 68.5872 85.3885 68.5872 85.401 68.5747C85.4135 68.5747 85.4259 68.5622 85.4384 68.5622C85.4384 68.5622 85.4384 68.5622 85.4509 68.5622C85.4509 68.5622 85.4508 68.5622 85.4633 68.5622L86.6098 67.9247C86.6596 67.8997 86.7095 67.8872 86.7593 67.8622L93.3018 64.2746C93.389 64.2246 93.4763 64.1621 93.5635 64.0996L94.9717 63.3495C95.1461 63.262 95.2832 63.137 95.4078 62.987L95.4203 62.9745C95.6322 62.7245 95.7692 62.3995 95.7817 62.062L96.0185 57.8368L96.0434 57.4743L96.168 55.3242L96.2054 54.6992C96.2303 54.3616 96.0933 54.0241 95.8316 53.7991C95.7692 53.7366 95.6945 53.6866 95.6322 53.6491C95.5449 53.5116 95.3829 53.4116 95.2583 53.3491L90.5104 50.3865L90.7471 45.9988L95.3829 44.7863Z" fill="#1910C1"/>
<path d="M83.9554 45.1612L83.6937 49.9489C83.6812 50.2614 83.918 50.5239 84.2296 50.5489L88.7906 50.7989C89.1146 50.8114 89.3888 50.5614 89.3888 50.2364C89.3888 49.2864 89.314 47.4488 88.7158 46.5613C88.1052 45.6487 85.8122 44.9487 84.6657 44.6487C84.3043 44.5612 83.9679 44.8112 83.9554 45.1612Z" fill="white"/>
<path d="M85.2266 35.8108L77.7619 39.2609C76.9769 39.6234 76.441 40.3985 76.4036 41.2735L75.4067 59.4617C75.3568 60.3118 75.7681 61.1118 76.4784 61.5743L81.0893 64.5619L84.2047 66.6995C84.8029 67.112 85.6129 66.712 85.6503 65.987L85.6877 65.3245C85.6877 65.287 85.7001 65.2495 85.7001 65.1995C85.7126 65.1369 85.7126 65.087 85.7251 65.0245L85.8248 63.2994C85.8497 62.9244 85.6628 62.5744 85.3387 62.3868L82.9461 60.7868C82.6719 60.5993 82.5099 60.2868 82.5224 59.9492V59.9742C82.5473 59.5117 82.9087 59.1242 83.3822 59.0867L84.8527 59.4492C85.4634 59.5992 86.0491 59.1617 86.0865 58.5367L86.2235 56.0741C86.2609 55.3991 86.0117 54.7365 85.5257 54.2615L83.5069 52.2614C82.9211 51.6739 82.5971 50.8614 82.647 50.0238L82.9959 43.5861C83.0333 42.8736 83.457 42.236 84.105 41.9235L86.3108 40.8735C86.7719 40.6485 87.0834 40.1859 87.1083 39.6609L87.2205 37.7234L87.2454 37.1733L87.2953 36.3483C87.3326 35.6483 86.6099 35.1607 85.9743 35.4483L85.2266 35.8108Z" fill="#009CF3"/>
<path d="M81.6252 39.1236L78.1857 40.6487C78.0735 40.6987 77.9364 40.6487 77.8741 40.5362L77.7994 40.3487C77.7495 40.2362 77.7994 40.0987 77.9115 40.0362L81.351 38.5111C81.4632 38.4611 81.6002 38.5111 81.6625 38.6236L81.7373 38.8111C81.7996 38.9236 81.7373 39.0611 81.6252 39.1236Z" fill="white"/>
<path d="M82.6968 38.6361L82.3604 38.7861C82.2482 38.8361 82.1111 38.7861 82.0488 38.6736L81.974 38.4861C81.9242 38.3735 81.974 38.236 82.0862 38.1735L82.4227 38.0235C82.5348 37.9735 82.6719 38.0235 82.7342 38.136L82.8215 38.3235C82.8713 38.4486 82.809 38.5861 82.6968 38.6361Z" fill="white"/>
<path d="M89.0274 35.9483L95.6571 39.536C95.9437 39.6985 96.1181 39.9985 96.0932 40.336L95.9811 42.4236C95.9437 43.0111 95.358 43.3861 94.8221 43.1736L88.1426 40.5235C87.8061 40.386 87.5818 40.0485 87.6067 39.686L87.7687 36.6609C87.8061 36.0233 88.4791 35.6483 89.0274 35.9483Z" fill="#009CF3"/>
<path d="M94.0495 40.011L90.7097 38.2734C90.5976 38.2109 90.5477 38.0734 90.61 37.9609L90.6973 37.7859C90.7596 37.6734 90.8967 37.6234 91.0088 37.6859L94.3486 39.4235C94.4607 39.486 94.5106 39.6235 94.4483 39.736L94.361 39.911C94.2987 40.0235 94.1617 40.061 94.0495 40.011Z" fill="white"/>
<path d="M95.0838 40.5485L94.7598 40.3735C94.6476 40.311 94.5978 40.1735 94.6601 40.061L94.7473 39.886C94.8096 39.7735 94.9467 39.7235 95.0589 39.786L95.3829 39.961C95.495 40.0235 95.5449 40.161 95.4826 40.2735L95.3953 40.4485C95.3455 40.561 95.1959 40.611 95.0838 40.5485Z" fill="white"/>
<path d="M94.6976 44.0112L91.3578 45.1488C91.0089 45.2613 90.635 45.2613 90.2986 45.1238L85.4883 43.2612C84.9898 43.0737 84.94 42.3862 85.4011 42.1237L87.6068 40.8486L94.7101 43.6362C95.0216 43.7612 95.6447 43.5487 94.6976 44.0112Z" fill="#009CF3"/>
<path d="M87.3202 55.5491L87.1831 57.9616C87.1582 58.4242 87.557 58.7867 88.0056 58.7242L94.2988 57.8866C94.6727 57.8366 94.9468 57.5116 94.9344 57.1366L94.8721 55.3991C94.8596 54.999 94.5231 54.6865 94.1243 54.6865L88.0305 54.849C87.6442 54.874 87.3327 55.174 87.3202 55.5491Z" fill="#009CF3"/>
<path d="M93.8377 60.4869L87.4572 62.262C87.1457 62.3495 86.9338 62.6245 86.9214 62.9495L86.884 64.8121C86.8715 65.3746 87.4572 65.7371 87.9557 65.4746L94.3611 62.087C94.5854 61.962 94.7349 61.737 94.7474 61.4744L94.7599 61.2244C94.7972 60.7369 94.3237 60.3619 93.8377 60.4869Z" fill="#009CF3"/>
<path d="M87.1307 52.33C87.1406 52.1508 86.8867 51.991 86.5637 51.9732C86.2408 51.9553 85.9709 52.0861 85.9611 52.2653C85.9512 52.4446 86.2051 52.6043 86.5281 52.6222C86.8511 52.6401 87.1209 52.5093 87.1307 52.33Z" fill="white"/>
<path d="M89.0167 53.1206C89.0266 52.9413 88.7727 52.7815 88.4497 52.7637C88.1267 52.7458 87.8569 52.8766 87.8471 53.0558C87.8372 53.2351 88.0911 53.3949 88.4141 53.4127C88.737 53.4306 89.0069 53.2998 89.0167 53.1206Z" fill="white"/>
<path d="M90.5727 50.8615C90.3733 50.9615 90.2362 51.1865 90.2487 51.4115C90.2612 51.6615 90.4232 51.8491 90.6226 51.9241L90.5727 52.7366C90.5727 52.8241 90.6475 52.8991 90.7347 52.8991H90.7846C90.8718 52.8991 90.9341 52.8241 90.9341 52.7491L90.9466 51.9491C90.959 51.9491 90.959 51.9491 90.9715 51.9491C91.2831 51.8616 91.4575 51.5365 91.3703 51.2365C91.2831 50.874 90.9092 50.699 90.5727 50.8615Z" fill="white"/>
<defs>
<linearGradient id="paint0_linear" x1="55.1425" y1="49.119" x2="46.1396" y2="37.6488" gradientUnits="userSpaceOnUse">
<stop stop-color="#005BF5"/>
<stop offset="1" stop-color="#FF0015"/>
</linearGradient>
</defs>
</svg>
