<svg width="542" height="15" viewBox="0 0 542 15" fill="none" xmlns="http://www.w3.org/2000/svg">
<path d="M8.88938 14.2264H0L9.65133 0H18.5407L8.88938 14.2264Z" fill="#E3E3E3"/>
<path d="M27.43 14.2264H18.7946L28.4459 0H37.0813L27.43 14.2264Z" fill="#E3E3E3"/>
<path d="M46.2247 14.2264H37.3353L46.9867 0H55.8761L46.2247 14.2264Z" fill="#E3E3E3"/>
<path d="M64.7657 14.2264H56.1302L65.7816 0H74.417L64.7657 14.2264Z" fill="#E3E3E3"/>
<path d="M83.56 14.2264H74.6707L84.322 0H93.2114L83.56 14.2264Z" fill="#E3E3E3"/>
<path d="M102.101 14.2264H93.4656L103.117 0H111.752L102.101 14.2264Z" fill="#E3E3E3"/>
<path d="M120.896 14.2264H112.006L121.658 0H130.547L120.896 14.2264Z" fill="#E3E3E3"/>
<path d="M139.436 14.2264H130.801L140.452 0H149.342L139.436 14.2264Z" fill="#E3E3E3"/>
<path d="M158.231 14.2264H149.342L158.993 0H167.883L158.231 14.2264Z" fill="#E3E3E3"/>
<path d="M176.772 14.2264H168.136L177.788 0H186.677L176.772 14.2264Z" fill="#E3E3E3"/>
<path d="M195.567 14.2264H186.677L196.328 0H205.218L195.567 14.2264Z" fill="#E3E3E3"/>
<path d="M214.361 14.2264H205.472L215.123 0H224.012L214.361 14.2264Z" fill="#E3E3E3"/>
<path d="M232.902 14.2264H224.012L233.664 0H242.553L232.902 14.2264Z" fill="#E3E3E3"/>
<path d="M251.697 14.2264H242.807L252.459 0H261.348L251.697 14.2264Z" fill="#E3E3E3"/>
<path d="M270.237 14.2264H261.348L270.999 0H279.888L270.237 14.2264Z" fill="#E3E3E3"/>
<path d="M289.032 14.2264H280.143L289.794 0H298.683L289.032 14.2264Z" fill="#E3E3E3"/>
<path d="M307.573 14.2264H298.684L308.589 0H317.224L307.573 14.2264Z" fill="#E3E3E3"/>
<path d="M326.367 14.2264H317.478L327.129 0H336.019L326.367 14.2264Z" fill="#E3E3E3"/>
<path d="M344.908 14.2264H336.019L345.924 0H354.56L344.908 14.2264Z" fill="#E3E3E3"/>
<path d="M363.703 14.2264H354.813L364.465 0H373.354L363.703 14.2264Z" fill="#E3E3E3"/>
<path d="M382.244 14.2264H373.608L383.26 0H391.895L382.244 14.2264Z" fill="#E3E3E3"/>
<path d="M401.038 14.2264H392.149L401.8 0H410.689L401.038 14.2264Z" fill="#E3E3E3"/>
<path d="M419.579 14.2264H410.944L420.595 0H429.23L419.579 14.2264Z" fill="#E3E3E3"/>
<path d="M438.374 14.2264H429.484L439.136 0H448.025L438.374 14.2264Z" fill="#E3E3E3"/>
<path d="M456.914 14.2264H448.279L457.93 0H466.566L456.914 14.2264Z" fill="#E3E3E3"/>
<path d="M475.709 14.2264H466.82L476.471 0H485.361L475.709 14.2264Z" fill="#E3E3E3"/>
<path d="M494.25 14.2264H485.614L495.266 0H503.901L494.25 14.2264Z" fill="#E3E3E3"/>
<path d="M513.045 14.2264H504.155L513.807 0H522.696L513.045 14.2264Z" fill="#E3E3E3"/>
<path d="M531.585 14.2264H522.95L532.601 0H541.236L531.585 14.2264Z" fill="#E3E3E3"/>
</svg>
