<svg width="1920" height="825" viewBox="0 0 1920 825" fill="none" xmlns="http://www.w3.org/2000/svg">
<g opacity="0.2">
<g opacity="0.8">
<g opacity="0.6">
<path opacity="0.6" d="M631.301 295.275V270.439L698.443 255.951V277.108L631.301 295.275Z" fill="white"/>
<path opacity="0.6" d="M780.647 80.3729V63.5854L813.183 74.5088V89.5715L780.647 80.3729Z" fill="white"/>
<path opacity="0.6" d="M869.519 291.596V279.408L886.879 271.129V282.282L869.519 291.596Z" fill="white"/>
<path opacity="0.6" d="M358.362 621.481V582.157L514.261 495.115V526.16L358.362 621.481Z" fill="white"/>
<path opacity="0.6" d="M276.158 196.735V153.042L464.249 156.951V190.641L276.158 196.735Z" fill="white"/>
<path opacity="0.6" d="M0 605.613V547.202L311.914 439.923V481.662L0 605.613Z" fill="white"/>
<path opacity="0.6" d="M739.028 517.766V498.794L780.072 461.08V477.868L739.028 517.766Z" fill="white"/>
<path opacity="0.6" d="M892.398 555.366V544.558L906.424 518.687V528.805L892.398 555.366Z" fill="white"/>
</g>
<g opacity="0.6">
<path opacity="0.6" d="M1288.7 295.275V270.439L1221.56 255.951V277.108L1288.7 295.275Z" fill="white"/>
<path opacity="0.6" d="M1139.35 80.3729V63.5854L1106.82 74.5088V89.5715L1139.35 80.3729Z" fill="white"/>
<path opacity="0.6" d="M1050.48 291.596V279.408L1033.12 271.129V282.282L1050.48 291.596Z" fill="white"/>
<path opacity="0.6" d="M1561.64 621.481V582.157L1405.74 495.115V526.16L1561.64 621.481Z" fill="white"/>
<path opacity="0.6" d="M1643.84 196.735V153.042L1455.75 156.951V190.641L1643.84 196.735Z" fill="white"/>
<path opacity="0.6" d="M1920 605.613V547.202L1608.09 439.923V481.662L1920 605.613Z" fill="white"/>
<path opacity="0.6" d="M1180.97 517.766V498.794L1139.93 461.08V477.868L1180.97 517.766Z" fill="white"/>
<path opacity="0.6" d="M1027.6 555.366V544.558L1013.58 518.687V528.805L1027.6 555.366Z" fill="white"/>
</g>
</g>
<g opacity="0.1">
<g opacity="0.1">
<path opacity="0.1" d="M1182.81 295.275V270.439L1135.33 255.951V277.108L1182.81 295.275Z" fill="white"/>
<path opacity="0.1" d="M1077.27 80.3729V63.5854L1054.28 74.5088V89.5715L1077.27 80.3729Z" fill="white"/>
<path opacity="0.1" d="M1014.5 291.596V279.408L1002.19 271.129V282.282L1014.5 291.596Z" fill="white"/>
<path opacity="0.1" d="M1375.85 621.481V582.157L1265.59 495.115V526.16L1375.85 621.481Z" fill="white"/>
<path opacity="0.1" d="M1433.91 196.735V153.042L1301 156.951V190.641L1433.91 196.735Z" fill="white"/>
<path opacity="0.1" d="M1629.13 605.613V547.202L1408.61 439.923V481.662L1629.13 605.613Z" fill="white"/>
<path opacity="0.1" d="M1106.7 517.766V498.794L1077.73 461.08V477.868L1106.7 517.766Z" fill="white"/>
<path opacity="0.1" d="M998.285 555.366V544.558L988.397 518.687V528.805L998.285 555.366Z" fill="white"/>
</g>
<g opacity="0.1">
<path opacity="0.1" d="M737.188 295.275V270.439L784.671 255.951V277.108L737.188 295.275Z" fill="white"/>
<path opacity="0.1" d="M842.73 80.3729V63.5854L865.724 74.5088V89.5715L842.73 80.3729Z" fill="white"/>
<path opacity="0.1" d="M905.504 291.596V279.408L917.806 271.129V282.282L905.504 291.596Z" fill="white"/>
<path opacity="0.1" d="M544.153 621.481V582.157L654.41 495.115V526.16L544.153 621.481Z" fill="white"/>
<path opacity="0.1" d="M486.093 196.735V153.042L618.999 156.951V190.641L486.093 196.735Z" fill="white"/>
<path opacity="0.1" d="M290.874 605.613V547.202L511.387 439.923V481.662L290.874 605.613Z" fill="white"/>
<path opacity="0.1" d="M813.298 517.766V498.794L842.271 461.08V477.868L813.298 517.766Z" fill="white"/>
<path opacity="0.1" d="M921.715 555.366V544.558L931.602 518.687V528.805L921.715 555.366Z" fill="white"/>
</g>
</g>
<g opacity="0.1">
<g opacity="0.1">
<path opacity="0.1" d="M622.908 34.6099V55.1917L662.342 67.2649V49.5576L622.908 34.6099Z" fill="white"/>
<path opacity="0.1" d="M737.188 377.603V401.059L787.315 362.885V343.223L737.188 377.603Z" fill="white"/>
<path opacity="0.1" d="M787.2 523.861V543.523L823.3 490.976V474.073L787.2 523.861Z" fill="white"/>
<path opacity="0.1" d="M862.39 238.589V252.617L881.59 243.533V230.885L862.39 238.589Z" fill="white"/>
<path opacity="0.1" d="M914.702 62.8955V73.014L924.819 79.9129V70.5993L914.702 62.8955Z" fill="white"/>
<path opacity="0.1" d="M541.049 630.68V668.969L661.768 548.697V519.606L541.049 630.68Z" fill="white"/>
</g>
<g opacity="0.1">
<path opacity="0.1" d="M1297.09 34.6099V55.1917L1257.66 67.2649V49.5576L1297.09 34.6099Z" fill="white"/>
<path opacity="0.1" d="M1182.81 377.603V401.059L1132.69 362.885V343.223L1182.81 377.603Z" fill="white"/>
<path opacity="0.1" d="M1132.8 523.861V543.523L1096.7 490.976V474.073L1132.8 523.861Z" fill="white"/>
<path opacity="0.1" d="M1057.61 238.589V252.617L1038.41 243.533V230.885L1057.61 238.589Z" fill="white"/>
<path opacity="0.1" d="M1005.3 62.8955V73.014L995.181 79.9129V70.5993L1005.3 62.8955Z" fill="white"/>
<path opacity="0.1" d="M1378.95 630.68V668.969L1258.23 548.697V519.606L1378.95 630.68Z" fill="white"/>
</g>
</g>
<g opacity="0.85">
<g opacity="0.85">
<path opacity="0.85" d="M708.905 0V27.9408L762.366 44.2683V20.3519L708.905 0Z" fill="white"/>
<path opacity="0.85" d="M658.204 430.38V462.115L726.036 410.488V383.812L658.204 430.38Z" fill="white"/>
<path opacity="0.85" d="M725.806 628.61V655.171L774.898 583.997V561L725.806 628.61Z" fill="white"/>
<path opacity="0.85" d="M827.899 242.038V261.01L853.768 248.707V231.69L827.899 242.038Z" fill="white"/>
<path opacity="0.85" d="M898.606 4.1394V17.8223L912.402 27.1359V14.6028L898.606 4.1394Z" fill="white"/>
<path opacity="0.85" d="M392.393 773.258V825L556.11 662.185V622.746L392.393 773.258Z" fill="white"/>
</g>
<g opacity="0.85">
<path opacity="0.85" d="M1211.09 0V27.9408L1157.63 44.2683V20.3519L1211.09 0Z" fill="white"/>
<path opacity="0.85" d="M1261.8 430.38V462.115L1193.96 410.488V383.812L1261.8 430.38Z" fill="white"/>
<path opacity="0.85" d="M1194.19 628.61V655.171L1145.1 583.997V561L1194.19 628.61Z" fill="white"/>
<path opacity="0.85" d="M1092.1 242.038V261.01L1066.23 248.707V231.69L1092.1 242.038Z" fill="white"/>
<path opacity="0.85" d="M1021.39 4.1394V17.8223L1007.6 27.1359V14.6028L1021.39 4.1394Z" fill="white"/>
<path opacity="0.85" d="M1527.61 773.258V825L1363.89 662.185V622.746L1527.61 773.258Z" fill="white"/>
</g>
</g>
</g>
</svg>
